<svg xmlns="http://www.w3.org/2000/svg" xmlns:xlink="http://www.w3.org/1999/xlink" width="24px" height="24px" viewBox="0 0 24 24" version="1.1">
<g id="surface1">
<path style=" stroke:none;fill-rule:nonzero;fill:rgb(0%,0%,0%);fill-opacity:1;" d="M 23.746094 15.855469 C 23.65625 15.78125 23.53125 15.773438 23.433594 15.839844 C 19.082031 18.699219 13.25 18.101562 9.558594 14.414062 C 5.871094 10.726562 5.273438 4.890625 8.136719 0.539062 C 8.199219 0.445312 8.191406 0.316406 8.117188 0.230469 C 8.046875 0.140625 7.921875 0.109375 7.816406 0.152344 C 6.28125 0.769531 4.90625 1.683594 3.726562 2.859375 C -1.066406 7.652344 -1.066406 15.453125 3.726562 20.246094 C 6.125 22.644531 9.273438 23.839844 12.417969 23.839844 C 15.566406 23.839844 18.714844 22.644531 21.113281 20.246094 C 22.292969 19.066406 23.203125 17.691406 23.824219 16.15625 C 23.863281 16.050781 23.832031 15.925781 23.746094 15.855469 Z M 23.746094 15.855469 "/>
<path style=" stroke:none;fill-rule:nonzero;fill:rgb(0%,0%,0%);fill-opacity:1;" d="M 20.484375 10.714844 C 19.195312 10.285156 18.167969 9.257812 17.738281 7.96875 C 17.667969 7.757812 17.476562 7.617188 17.253906 7.617188 C 17.03125 7.617188 16.839844 7.757812 16.769531 7.96875 C 16.339844 9.257812 15.3125 10.285156 14.023438 10.714844 C 13.808594 10.785156 13.671875 10.976562 13.671875 11.199219 C 13.671875 11.421875 13.8125 11.613281 14.023438 11.683594 C 15.3125 12.113281 16.339844 13.140625 16.769531 14.429688 C 16.839844 14.640625 17.03125 14.78125 17.253906 14.78125 C 17.476562 14.78125 17.667969 14.640625 17.738281 14.429688 C 18.167969 13.140625 19.195312 12.113281 20.484375 11.683594 C 20.695312 11.613281 20.835938 11.421875 20.835938 11.199219 C 20.835938 10.976562 20.695312 10.785156 20.484375 10.714844 Z M 20.484375 10.714844 "/>
<path style=" stroke:none;fill-rule:nonzero;fill:rgb(0%,0%,0%);fill-opacity:1;" d="M 21.636719 3.183594 C 20.953125 2.953125 20.410156 2.410156 20.179688 1.726562 C 20.125 1.558594 19.972656 1.449219 19.800781 1.449219 C 19.625 1.449219 19.472656 1.558594 19.417969 1.726562 C 19.191406 2.410156 18.648438 2.953125 17.960938 3.183594 C 17.796875 3.238281 17.6875 3.390625 17.6875 3.5625 C 17.6875 3.734375 17.796875 3.890625 17.960938 3.945312 C 18.644531 4.171875 19.191406 4.714844 19.417969 5.398438 C 19.472656 5.566406 19.625 5.675781 19.800781 5.675781 C 19.972656 5.675781 20.125 5.566406 20.179688 5.398438 C 20.410156 4.714844 20.953125 4.171875 21.636719 3.945312 C 21.800781 3.890625 21.914062 3.734375 21.914062 3.5625 C 21.914062 3.390625 21.800781 3.238281 21.636719 3.183594 Z M 21.636719 3.183594 "/>
<path style=" stroke:none;fill-rule:nonzero;fill:rgb(0%,0%,0%);fill-opacity:1;" d="M 13.902344 5.054688 C 13.050781 4.773438 12.375 4.09375 12.089844 3.242188 C 12.03125 3.066406 11.867188 2.945312 11.679688 2.945312 C 11.492188 2.945312 11.328125 3.066406 11.269531 3.242188 C 10.984375 4.09375 10.308594 4.773438 9.457031 5.054688 C 9.28125 5.113281 9.160156 5.277344 9.160156 5.464844 C 9.160156 5.652344 9.28125 5.816406 9.457031 5.875 C 10.308594 6.160156 10.988281 6.835938 11.269531 7.6875 C 11.328125 7.867188 11.492188 7.984375 11.679688 7.984375 C 11.867188 7.984375 12.03125 7.867188 12.089844 7.6875 C 12.375 6.835938 13.050781 6.160156 13.902344 5.875 C 14.082031 5.816406 14.199219 5.652344 14.199219 5.464844 C 14.199219 5.277344 14.082031 5.113281 13.902344 5.054688 Z M 13.902344 5.054688 "/>
</g>
</svg>
