<?xml version="1.0" encoding="UTF-8"?>
<svg xmlns="http://www.w3.org/2000/svg" xmlnsXlink="http://www.w3.org/1999/xlink" width="24px" height="24px" viewBox="0 0 24 24" version="1.1" fill="none">
<g id="surface1">
<path style=" stroke:none;fill-rule:nonzero;fill:currentColor;fill-opacity:1;" d="M 11.988281 18.886719 C 8.183594 18.886719 5.085938 15.789062 5.085938 11.988281 C 5.085938 8.183594 8.183594 5.085938 11.988281 5.085938 C 15.789062 5.085938 18.886719 8.183594 18.886719 11.988281 C 18.886719 13.230469 18.550781 14.449219 17.917969 15.515625 C 16.675781 17.59375 14.40625 18.886719 11.988281 18.886719 Z M 11.988281 6.140625 C 8.761719 6.140625 6.140625 8.761719 6.140625 11.988281 C 6.140625 15.210938 8.761719 17.832031 11.988281 17.832031 C 14.035156 17.832031 15.960938 16.738281 17.011719 14.976562 C 17.546875 14.074219 17.832031 13.042969 17.832031 11.988281 C 17.832031 8.761719 15.210938 6.140625 11.988281 6.140625 Z M 11.988281 6.140625 "/>
<path style=" stroke:none;fill-rule:nonzero;fill:currentColor;fill-opacity:1;" d="M 11.988281 4.046875 C 11.695312 4.046875 11.460938 3.8125 11.460938 3.519531 L 11.460938 0.660156 C 11.460938 0.367188 11.695312 0.132812 11.988281 0.132812 C 12.277344 0.132812 12.511719 0.367188 12.511719 0.660156 L 12.511719 3.519531 C 12.511719 3.8125 12.277344 4.046875 11.988281 4.046875 Z M 11.988281 4.046875 "/>
<path style=" stroke:none;fill-rule:nonzero;fill:currentColor;fill-opacity:1;" d="M 11.988281 23.839844 C 11.695312 23.839844 11.460938 23.605469 11.460938 23.3125 L 11.460938 20.453125 C 11.460938 20.160156 11.695312 19.925781 11.988281 19.925781 C 12.277344 19.925781 12.511719 20.160156 12.511719 20.453125 L 12.511719 23.3125 C 12.511719 23.605469 12.277344 23.839844 11.988281 23.839844 Z M 11.988281 23.839844 "/>
<path style=" stroke:none;fill-rule:nonzero;fill:currentColor;fill-opacity:1;" d="M 3.519531 12.511719 L 0.660156 12.511719 C 0.367188 12.511719 0.132812 12.277344 0.132812 11.988281 C 0.132812 11.695312 0.367188 11.460938 0.660156 11.460938 L 3.519531 11.460938 C 3.8125 11.460938 4.046875 11.695312 4.046875 11.988281 C 4.046875 12.277344 3.8125 12.511719 3.519531 12.511719 Z M 3.519531 12.511719 "/>
<path style=" stroke:none;fill-rule:nonzero;fill:currentColor;fill-opacity:1;" d="M 23.3125 12.511719 L 20.453125 12.511719 C 20.160156 12.511719 19.925781 12.277344 19.925781 11.988281 C 19.925781 11.695312 20.160156 11.460938 20.453125 11.460938 L 23.3125 11.460938 C 23.605469 11.460938 23.839844 11.695312 23.839844 11.988281 C 23.839844 12.277344 23.605469 12.511719 23.3125 12.511719 Z M 23.3125 12.511719 "/>
<path style=" stroke:none;fill-rule:nonzero;fill:currentColor;fill-opacity:1;" d="M 17.972656 6.527344 C 17.839844 6.527344 17.703125 6.476562 17.601562 6.371094 C 17.394531 6.167969 17.394531 5.832031 17.601562 5.628906 L 19.625 3.605469 C 19.828125 3.398438 20.164062 3.398438 20.367188 3.605469 C 20.574219 3.808594 20.574219 4.144531 20.367188 4.347656 L 18.34375 6.371094 C 18.242188 6.476562 18.109375 6.527344 17.972656 6.527344 Z M 17.972656 6.527344 "/>
<path style=" stroke:none;fill-rule:nonzero;fill:currentColor;fill-opacity:1;" d="M 3.976562 20.523438 C 3.839844 20.523438 3.707031 20.472656 3.605469 20.367188 C 3.398438 20.164062 3.398438 19.828125 3.605469 19.625 L 5.628906 17.601562 C 5.832031 17.394531 6.167969 17.394531 6.371094 17.601562 C 6.578125 17.804688 6.578125 18.140625 6.371094 18.34375 L 4.347656 20.367188 C 4.246094 20.472656 4.113281 20.523438 3.976562 20.523438 Z M 3.976562 20.523438 "/>
<path style=" stroke:none;fill-rule:nonzero;fill:currentColor;fill-opacity:1;" d="M 6 6.527344 C 5.867188 6.527344 5.730469 6.476562 5.628906 6.371094 L 3.605469 4.347656 C 3.398438 4.144531 3.398438 3.808594 3.605469 3.605469 C 3.808594 3.398438 4.144531 3.398438 4.347656 3.605469 L 6.371094 5.628906 C 6.578125 5.832031 6.578125 6.167969 6.371094 6.371094 C 6.269531 6.476562 6.136719 6.527344 6 6.527344 Z M 6 6.527344 "/>
<path style=" stroke:none;fill-rule:nonzero;fill:currentColor;fill-opacity:1;" d="M 19.996094 20.523438 C 19.863281 20.523438 19.726562 20.472656 19.625 20.367188 L 17.601562 18.34375 C 17.394531 18.140625 17.394531 17.804688 17.601562 17.601562 C 17.804688 17.394531 18.140625 17.394531 18.34375 17.601562 L 20.367188 19.625 C 20.574219 19.828125 20.574219 20.164062 20.367188 20.367188 C 20.265625 20.472656 20.132812 20.523438 19.996094 20.523438 Z M 19.996094 20.523438 "/>
<path style=" stroke:none;fill-rule:nonzero;fill:currentColor;fill-opacity:1;" d="M 8.746094 4.691406 C 8.539062 4.691406 8.34375 4.570312 8.261719 4.367188 L 7.164062 1.722656 C 7.054688 1.453125 7.179688 1.144531 7.449219 1.035156 C 7.71875 0.921875 8.027344 1.050781 8.136719 1.320312 L 9.234375 3.964844 C 9.34375 4.234375 9.21875 4.539062 8.949219 4.652344 C 8.882812 4.679688 8.8125 4.691406 8.746094 4.691406 Z M 8.746094 4.691406 "/>
<path style=" stroke:none;fill-rule:nonzero;fill:currentColor;fill-opacity:1;" d="M 16.320312 22.980469 C 16.113281 22.980469 15.917969 22.855469 15.835938 22.652344 L 14.738281 20.011719 C 14.628906 19.742188 14.753906 19.433594 15.023438 19.320312 C 15.292969 19.210938 15.601562 19.339844 15.710938 19.605469 L 16.808594 22.25 C 16.917969 22.519531 16.792969 22.828125 16.523438 22.9375 C 16.457031 22.964844 16.390625 22.980469 16.320312 22.980469 Z M 16.320312 22.980469 "/>
<path style=" stroke:none;fill-rule:nonzero;fill:currentColor;fill-opacity:1;" d="M 1.519531 16.847656 C 1.3125 16.847656 1.117188 16.726562 1.035156 16.523438 C 0.921875 16.253906 1.050781 15.945312 1.320312 15.835938 L 3.964844 14.738281 C 4.234375 14.628906 4.539062 14.757812 4.652344 15.023438 C 4.761719 15.292969 4.636719 15.601562 4.367188 15.714844 L 1.722656 16.808594 C 1.65625 16.835938 1.589844 16.847656 1.519531 16.847656 Z M 1.519531 16.847656 "/>
<path style=" stroke:none;fill-rule:nonzero;fill:currentColor;fill-opacity:1;" d="M 19.808594 9.273438 C 19.601562 9.273438 19.40625 9.152344 19.320312 8.949219 C 19.210938 8.679688 19.335938 8.371094 19.605469 8.261719 L 22.25 7.164062 C 22.519531 7.054688 22.828125 7.179688 22.9375 7.449219 C 23.050781 7.71875 22.921875 8.027344 22.652344 8.136719 L 20.011719 9.234375 C 19.945312 9.261719 19.875 9.273438 19.808594 9.273438 Z M 19.808594 9.273438 "/>
<path style=" stroke:none;fill-rule:nonzero;fill:currentColor;fill-opacity:1;" d="M 15.226562 4.691406 C 15.160156 4.691406 15.089844 4.679688 15.023438 4.652344 C 14.753906 4.539062 14.628906 4.234375 14.738281 3.964844 L 15.835938 1.320312 C 15.945312 1.050781 16.253906 0.921875 16.523438 1.035156 C 16.792969 1.144531 16.917969 1.453125 16.808594 1.722656 L 15.710938 4.367188 C 15.628906 4.570312 15.433594 4.691406 15.226562 4.691406 Z M 15.226562 4.691406 "/>
<path style=" stroke:none;fill-rule:nonzero;fill:currentColor;fill-opacity:1;" d="M 7.652344 22.980469 C 7.585938 22.980469 7.515625 22.964844 7.449219 22.9375 C 7.179688 22.828125 7.054688 22.519531 7.164062 22.25 L 8.261719 19.605469 C 8.371094 19.339844 8.679688 19.210938 8.949219 19.320312 C 9.21875 19.433594 9.34375 19.742188 9.234375 20.011719 L 8.136719 22.652344 C 8.054688 22.855469 7.859375 22.980469 7.652344 22.980469 Z M 7.652344 22.980469 "/>
<path style=" stroke:none;fill-rule:nonzero;fill:currentColor;fill-opacity:1;" d="M 4.164062 9.273438 C 4.097656 9.273438 4.03125 9.261719 3.964844 9.234375 L 1.320312 8.136719 C 1.050781 8.027344 0.921875 7.71875 1.035156 7.449219 C 1.144531 7.179688 1.453125 7.054688 1.722656 7.164062 L 4.367188 8.261719 C 4.636719 8.371094 4.761719 8.679688 4.652344 8.949219 C 4.566406 9.152344 4.371094 9.273438 4.164062 9.273438 Z M 4.164062 9.273438 "/>
<path style=" stroke:none;fill-rule:nonzero;fill:currentColor;fill-opacity:1;" d="M 22.453125 16.847656 C 22.382812 16.847656 22.316406 16.835938 22.25 16.808594 L 19.605469 15.714844 C 19.335938 15.601562 19.210938 15.292969 19.320312 15.023438 C 19.433594 14.757812 19.738281 14.628906 20.011719 14.738281 L 22.652344 15.835938 C 22.921875 15.945312 23.050781 16.253906 22.9375 16.523438 C 22.855469 16.726562 22.660156 16.847656 22.453125 16.847656 Z M 22.453125 16.847656 "/>
</g>
</svg>
