<?xml version="1.0" encoding="UTF-8"?>
<svg xmlns="http://www.w3.org/2000/svg" xmlns:xlink="http://www.w3.org/1999/xlink" width="24px" height="24px" viewBox="0 0 24 24" version="1.1">
<g id="surface1">
<path style=" stroke:none; fill-rule:nonzero; fill-opacity:1;" d="M 12 11 C 14.761719 11 17 8.761719 17 6 C 17 3.238281 14.761719 1 12 1 C 9.238281 1 7 3.238281 7 6 C 7.003906 8.761719 9.238281 10.996094 12 11 Z M 12 3 C 13.65625 3 15 4.34375 15 6 C 15 7.65625 13.65625 9 12 9 C 10.34375 9 9 7.65625 9 6 C 9 4.34375 10.34375 3 12 3 Z M 3 22 L 3 18 C 3.003906 15.238281 5.238281 13.003906 8 13 L 16 13 C 18.761719 13.003906 20.996094 15.238281 21 18 L 21 22 C 21 22.550781 20.550781 23 20 23 C 19.449219 23 19 22.550781 19 22 L 19 18 C 19 16.34375 17.65625 15 16 15 L 8 15 C 6.34375 15 5 16.34375 5 18 L 5 22 C 5 22.550781 4.550781 23 4 23 C 3.449219 23 3 22.550781 3 22 Z M 3 22 "/>
</g>
</svg>
